<svg xmlns="http://www.w3.org/2000/svg" style="display: none;">
    <symbol id="icon-logo" viewBox="0 0 512 512">
      <path d="M54.894 39.5039H48.6641V19.77H54.894V39.5039ZM30.4021 25.9999V39.504H24.1723V22.3647C24.1723 21.6765 24.4457 21.0165 24.9322 20.5301C25.4188 20.0435 26.0787 19.77 26.7669 19.77H42.3312C43.0195 19.77 43.6793 20.0435 44.1657 20.5301C44.6523 21.0165 44.9257 21.6765 44.9257 22.3647V39.504H38.696V25.9999H30.4021ZM14.2345 33.2742V19.7702H20.4644V36.9095C20.4644 37.5977 20.1909 38.2576 19.7044 38.744C19.2179 39.2307 18.5579 39.5041 17.87 39.5041H2.30544C1.61752 39.5041 0.957379 39.2307 0.470894 38.744C-0.0157201 38.2576 -0.289062 37.5977 -0.289062 36.9095V19.7702H5.9407V33.2742H14.2345Z" fill="black" />
    </symbol>

    <symbol id="icon-separator" viewBox="0 0 512 512">
      <path d="m6 0 1.273 4.727L12 6 7.273 7.273 6 12 4.727 7.273 0 6l4.727-1.273L6 0Z" />
    </symbol>
</svg>